<svg xmlns="http://www.w3.org/2000/svg" width="1200" height="1020" viewBox="0 0 1200 1020" role="img" aria-labelledby="title desc"><title id="title">24 categories, twelve fixed colours</title><desc id="desc">Illustrative allocation for 24 categories. Categories 01 to 12 use twelve fixed solid fills. Categories 13 to 24, if present, reuse the corresponding colour with diagonal hatching. No category is reassigned as the count grows. A directly labelled bar chart uses invented scores. This is a demonstration of assignment, not a validated readable category limit.</desc><g font-family="Arial, Helvetica, sans-serif"><rect x="0" y="0" width="1200" height="1020" rx="0" fill="#ffffff" stroke="none"/><defs><pattern id="h0" width="12" height="12" patternUnits="userSpaceOnUse"><rect x="0" y="0" width="12" height="12" rx="0" fill="#335cff" stroke="none"/><path d="M-4 4 L4 -4 M0 12 L12 0 M8 16 L16 8" stroke="#ffffff" stroke-width="2"/></pattern><pattern id="h1" width="12" height="12" patternUnits="userSpaceOnUse"><rect x="0" y="0" width="12" height="12" rx="0" fill="#ea6500" stroke="none"/><path d="M-4 4 L4 -4 M0 12 L12 0 M8 16 L16 8" stroke="#17243b" stroke-width="2"/></pattern><pattern id="h2" width="12" height="12" patternUnits="userSpaceOnUse"><rect x="0" y="0" width="12" height="12" rx="0" fill="#009b48" stroke="none"/><path d="M-4 4 L4 -4 M0 12 L12 0 M8 16 L16 8" stroke="#17243b" stroke-width="2"/></pattern><pattern id="h3" width="12" height="12" patternUnits="userSpaceOnUse"><rect x="0" y="0" width="12" height="12" rx="0" fill="#ed3b4f" stroke="none"/><path d="M-4 4 L4 -4 M0 12 L12 0 M8 16 L16 8" stroke="#17243b" stroke-width="2"/></pattern><pattern id="h4" width="12" height="12" patternUnits="userSpaceOnUse"><rect x="0" y="0" width="12" height="12" rx="0" fill="#00979e" stroke="none"/><path d="M-4 4 L4 -4 M0 12 L12 0 M8 16 L16 8" stroke="#17243b" stroke-width="2"/></pattern><pattern id="h5" width="12" height="12" patternUnits="userSpaceOnUse"><rect x="0" y="0" width="12" height="12" rx="0" fill="#d62aaa" stroke="none"/><path d="M-4 4 L4 -4 M0 12 L12 0 M8 16 L16 8" stroke="#ffffff" stroke-width="2"/></pattern><pattern id="h6" width="12" height="12" patternUnits="userSpaceOnUse"><rect x="0" y="0" width="12" height="12" rx="0" fill="#008ecb" stroke="none"/><path d="M-4 4 L4 -4 M0 12 L12 0 M8 16 L16 8" stroke="#17243b" stroke-width="2"/></pattern><pattern id="h7" width="12" height="12" patternUnits="userSpaceOnUse"><rect x="0" y="0" width="12" height="12" rx="0" fill="#883df2" stroke="none"/><path d="M-4 4 L4 -4 M0 12 L12 0 M8 16 L16 8" stroke="#ffffff" stroke-width="2"/></pattern><pattern id="h8" width="12" height="12" patternUnits="userSpaceOnUse"><rect x="0" y="0" width="12" height="12" rx="0" fill="#6f9700" stroke="none"/><path d="M-4 4 L4 -4 M0 12 L12 0 M8 16 L16 8" stroke="#17243b" stroke-width="2"/></pattern><pattern id="h9" width="12" height="12" patternUnits="userSpaceOnUse"><rect x="0" y="0" width="12" height="12" rx="0" fill="#d900ef" stroke="none"/><path d="M-4 4 L4 -4 M0 12 L12 0 M8 16 L16 8" stroke="#ffffff" stroke-width="2"/></pattern><pattern id="h10" width="12" height="12" patternUnits="userSpaceOnUse"><rect x="0" y="0" width="12" height="12" rx="0" fill="#656dff" stroke="none"/><path d="M-4 4 L4 -4 M0 12 L12 0 M8 16 L16 8" stroke="#ffffff" stroke-width="2"/></pattern><pattern id="h11" width="12" height="12" patternUnits="userSpaceOnUse"><rect x="0" y="0" width="12" height="12" rx="0" fill="#d60059" stroke="none"/><path d="M-4 4 L4 -4 M0 12 L12 0 M8 16 L16 8" stroke="#ffffff" stroke-width="2"/></pattern></defs><text x="48" y="45" font-size="17" fill="#526178" font-weight="600" text-anchor="start">PROPOSAL / A FIXED PALETTE WITH AUTOMATIC REUSE</text><text x="48" y="99" font-size="37" fill="#17243b" font-weight="600" text-anchor="start">What happens when we need colour 13?</text><text x="48" y="139" font-size="22" fill="#526178" font-weight="400" text-anchor="start">24 categories · 12 fixed colours · 12 patterned reuses</text><path d="M48 169 L1152 169" stroke="#dce2eb" stroke-width="1" fill="none"/><text x="48" y="207" font-size="17" fill="#526178" font-weight="600" text-anchor="start">FIRST PASS / THE TWELVE AUTHORED COLOURS</text><rect x="48" y="228" width="80" height="66" rx="6" fill="#335cff" stroke="none"/><text x="88" y="320" font-size="19" fill="#17243b" font-weight="600" text-anchor="middle">01</text><rect x="140" y="228" width="80" height="66" rx="6" fill="#ea6500" stroke="none"/><text x="180" y="320" font-size="19" fill="#17243b" font-weight="600" text-anchor="middle">02</text><rect x="232" y="228" width="80" height="66" rx="6" fill="#009b48" stroke="none"/><text x="272" y="320" font-size="19" fill="#17243b" font-weight="600" text-anchor="middle">03</text><rect x="324" y="228" width="80" height="66" rx="6" fill="#ed3b4f" stroke="none"/><text x="364" y="320" font-size="19" fill="#17243b" font-weight="600" text-anchor="middle">04</text><rect x="416" y="228" width="80" height="66" rx="6" fill="#00979e" stroke="none"/><text x="456" y="320" font-size="19" fill="#17243b" font-weight="600" text-anchor="middle">05</text><rect x="508" y="228" width="80" height="66" rx="6" fill="#d62aaa" stroke="none"/><text x="548" y="320" font-size="19" fill="#17243b" font-weight="600" text-anchor="middle">06</text><rect x="600" y="228" width="80" height="66" rx="6" fill="#008ecb" stroke="none"/><text x="640" y="320" font-size="19" fill="#17243b" font-weight="600" text-anchor="middle">07</text><rect x="692" y="228" width="80" height="66" rx="6" fill="#883df2" stroke="none"/><text x="732" y="320" font-size="19" fill="#17243b" font-weight="600" text-anchor="middle">08</text><rect x="784" y="228" width="80" height="66" rx="6" fill="#6f9700" stroke="none"/><text x="824" y="320" font-size="19" fill="#17243b" font-weight="600" text-anchor="middle">09</text><rect x="876" y="228" width="80" height="66" rx="6" fill="#d900ef" stroke="none"/><text x="916" y="320" font-size="19" fill="#17243b" font-weight="600" text-anchor="middle">10</text><rect x="968" y="228" width="80" height="66" rx="6" fill="#656dff" stroke="none"/><text x="1008" y="320" font-size="19" fill="#17243b" font-weight="600" text-anchor="middle">11</text><rect x="1060" y="228" width="80" height="66" rx="6" fill="#d60059" stroke="none"/><text x="1100" y="320" font-size="19" fill="#17243b" font-weight="600" text-anchor="middle">12</text><text x="48" y="362" font-size="17" fill="#526178" font-weight="600" text-anchor="start">SECOND PASS / REUSE THE COLOUR, ADD A PATTERN</text><rect x="48" y="383" width="80" height="66" rx="6" fill="url(#h0)" stroke="none"/><text x="88" y="475" font-size="19" fill="#17243b" font-weight="600" text-anchor="middle">13</text><rect x="140" y="383" width="80" height="66" rx="6" fill="url(#h1)" stroke="none"/><text x="180" y="475" font-size="19" fill="#17243b" font-weight="600" text-anchor="middle">14</text><rect x="232" y="383" width="80" height="66" rx="6" fill="url(#h2)" stroke="none"/><text x="272" y="475" font-size="19" fill="#17243b" font-weight="600" text-anchor="middle">15</text><rect x="324" y="383" width="80" height="66" rx="6" fill="url(#h3)" stroke="none"/><text x="364" y="475" font-size="19" fill="#17243b" font-weight="600" text-anchor="middle">16</text><rect x="416" y="383" width="80" height="66" rx="6" fill="url(#h4)" stroke="none"/><text x="456" y="475" font-size="19" fill="#17243b" font-weight="600" text-anchor="middle">17</text><rect x="508" y="383" width="80" height="66" rx="6" fill="url(#h5)" stroke="none"/><text x="548" y="475" font-size="19" fill="#17243b" font-weight="600" text-anchor="middle">18</text><rect x="600" y="383" width="80" height="66" rx="6" fill="url(#h6)" stroke="none"/><text x="640" y="475" font-size="19" fill="#17243b" font-weight="600" text-anchor="middle">19</text><rect x="692" y="383" width="80" height="66" rx="6" fill="url(#h7)" stroke="none"/><text x="732" y="475" font-size="19" fill="#17243b" font-weight="600" text-anchor="middle">20</text><rect x="784" y="383" width="80" height="66" rx="6" fill="url(#h8)" stroke="none"/><text x="824" y="475" font-size="19" fill="#17243b" font-weight="600" text-anchor="middle">21</text><rect x="876" y="383" width="80" height="66" rx="6" fill="url(#h9)" stroke="none"/><text x="916" y="475" font-size="19" fill="#17243b" font-weight="600" text-anchor="middle">22</text><rect x="968" y="383" width="80" height="66" rx="6" fill="url(#h10)" stroke="none"/><text x="1008" y="475" font-size="19" fill="#17243b" font-weight="600" text-anchor="middle">23</text><rect x="1060" y="383" width="80" height="66" rx="6" fill="url(#h11)" stroke="none"/><text x="1100" y="475" font-size="19" fill="#17243b" font-weight="600" text-anchor="middle">24</text><rect x="48" y="505" width="1104" height="66" rx="9" fill="#f0f4ff" stroke="none"/><text x="70" y="545" font-size="20" fill="#17243b" font-weight="500" text-anchor="start">Two fill treatments create 24 colour + pattern pairs. They do not prove 24-series readability.</text><text x="48" y="626" font-size="27" fill="#17243b" font-weight="600" text-anchor="start">The same allocation, drawn as labelled bars</text><text x="48" y="659" font-size="19" fill="#526178" font-weight="400" text-anchor="start">Synthetic scores · Labels are present from category 01, before any pattern is needed.</text><path d="M90 914.0 L1152 914.0" stroke="#dce2eb" stroke-width="1" fill="none"/><text x="76" y="920.0" font-size="16" fill="#526178" font-weight="400" text-anchor="end">0</text><path d="M90 809.0 L1152 809.0" stroke="#dce2eb" stroke-width="1" fill="none"/><text x="76" y="815.0" font-size="16" fill="#526178" font-weight="400" text-anchor="end">50</text><path d="M90 704.0 L1152 704.0" stroke="#dce2eb" stroke-width="1" fill="none"/><text x="76" y="710.0" font-size="16" fill="#526178" font-weight="400" text-anchor="end">100</text><text x="48" y="694" font-size="16" fill="#526178" font-weight="400" text-anchor="start">Score</text><rect x="96.195" y="813.2" width="31.86" height="100.8" rx="3" fill="#335cff" stroke="none"/><text x="112.125" y="804.2" font-size="16" fill="#17243b" font-weight="500" text-anchor="middle">48</text><text x="112.125" y="942" font-size="16" fill="#17243b" font-weight="500" text-anchor="middle">01</text><rect x="140.445" y="777.5" width="31.86" height="136.5" rx="3" fill="#ea6500" stroke="none"/><text x="156.375" y="768.5" font-size="16" fill="#17243b" font-weight="500" text-anchor="middle">65</text><text x="156.375" y="942" font-size="16" fill="#17243b" font-weight="500" text-anchor="middle">02</text><rect x="184.695" y="832.1" width="31.86" height="81.9" rx="3" fill="#009b48" stroke="none"/><text x="200.625" y="823.1" font-size="16" fill="#17243b" font-weight="500" text-anchor="middle">39</text><text x="200.625" y="942" font-size="16" fill="#17243b" font-weight="500" text-anchor="middle">03</text><rect x="228.945" y="741.8" width="31.86" height="172.2" rx="3" fill="#ed3b4f" stroke="none"/><text x="244.875" y="732.8" font-size="16" fill="#17243b" font-weight="500" text-anchor="middle">82</text><text x="244.875" y="942" font-size="16" fill="#17243b" font-weight="500" text-anchor="middle">04</text><rect x="273.195" y="800.6" width="31.86" height="113.4" rx="3" fill="#00979e" stroke="none"/><text x="289.125" y="791.6" font-size="16" fill="#17243b" font-weight="500" text-anchor="middle">54</text><text x="289.125" y="942" font-size="16" fill="#17243b" font-weight="500" text-anchor="middle">05</text><rect x="317.445" y="764.9" width="31.86" height="149.1" rx="3" fill="#d62aaa" stroke="none"/><text x="333.375" y="755.9" font-size="16" fill="#17243b" font-weight="500" text-anchor="middle">71</text><text x="333.375" y="942" font-size="16" fill="#17243b" font-weight="500" text-anchor="middle">06</text><rect x="361.695" y="819.5" width="31.86" height="94.5" rx="3" fill="#008ecb" stroke="none"/><text x="377.625" y="810.5" font-size="16" fill="#17243b" font-weight="500" text-anchor="middle">45</text><text x="377.625" y="942" font-size="16" fill="#17243b" font-weight="500" text-anchor="middle">07</text><rect x="405.945" y="727.1" width="31.86" height="186.9" rx="3" fill="#883df2" stroke="none"/><text x="421.875" y="718.1" font-size="16" fill="#17243b" font-weight="500" text-anchor="middle">89</text><text x="421.875" y="942" font-size="16" fill="#17243b" font-weight="500" text-anchor="middle">08</text><rect x="450.195" y="785.9" width="31.86" height="128.1" rx="3" fill="#6f9700" stroke="none"/><text x="466.125" y="776.9" font-size="16" fill="#17243b" font-weight="500" text-anchor="middle">61</text><text x="466.125" y="942" font-size="16" fill="#17243b" font-weight="500" text-anchor="middle">09</text><rect x="494.445" y="840.5" width="31.86" height="73.5" rx="3" fill="#d900ef" stroke="none"/><text x="510.375" y="831.5" font-size="16" fill="#17243b" font-weight="500" text-anchor="middle">35</text><text x="510.375" y="942" font-size="16" fill="#17243b" font-weight="500" text-anchor="middle">10</text><rect x="538.695" y="752.3" width="31.86" height="161.7" rx="3" fill="#656dff" stroke="none"/><text x="554.625" y="743.3" font-size="16" fill="#17243b" font-weight="500" text-anchor="middle">77</text><text x="554.625" y="942" font-size="16" fill="#17243b" font-weight="500" text-anchor="middle">11</text><rect x="582.945" y="794.3" width="31.86" height="119.7" rx="3" fill="#d60059" stroke="none"/><text x="598.875" y="785.3" font-size="16" fill="#17243b" font-weight="500" text-anchor="middle">57</text><text x="598.875" y="942" font-size="16" fill="#17243b" font-weight="500" text-anchor="middle">12</text><rect x="627.195" y="769.1" width="31.86" height="144.9" rx="3" fill="url(#h0)" stroke="none"/><text x="643.125" y="760.1" font-size="16" fill="#17243b" font-weight="500" text-anchor="middle">69</text><text x="643.125" y="942" font-size="16" fill="#17243b" font-weight="500" text-anchor="middle">13</text><rect x="671.445" y="823.7" width="31.86" height="90.3" rx="3" fill="url(#h1)" stroke="none"/><text x="687.375" y="814.7" font-size="16" fill="#17243b" font-weight="500" text-anchor="middle">43</text><text x="687.375" y="942" font-size="16" fill="#17243b" font-weight="500" text-anchor="middle">14</text><rect x="715.695" y="733.4" width="31.86" height="180.6" rx="3" fill="url(#h2)" stroke="none"/><text x="731.625" y="724.4" font-size="16" fill="#17243b" font-weight="500" text-anchor="middle">86</text><text x="731.625" y="942" font-size="16" fill="#17243b" font-weight="500" text-anchor="middle">15</text><rect x="759.945" y="804.8" width="31.86" height="109.2" rx="3" fill="url(#h3)" stroke="none"/><text x="775.875" y="795.8" font-size="16" fill="#17243b" font-weight="500" text-anchor="middle">52</text><text x="775.875" y="942" font-size="16" fill="#17243b" font-weight="500" text-anchor="middle">16</text><rect x="804.195" y="758.6" width="31.86" height="155.4" rx="3" fill="url(#h4)" stroke="none"/><text x="820.125" y="749.6" font-size="16" fill="#17243b" font-weight="500" text-anchor="middle">74</text><text x="820.125" y="942" font-size="16" fill="#17243b" font-weight="500" text-anchor="middle">17</text><rect x="848.445" y="834.2" width="31.86" height="79.8" rx="3" fill="url(#h5)" stroke="none"/><text x="864.375" y="825.2" font-size="16" fill="#17243b" font-weight="500" text-anchor="middle">38</text><text x="864.375" y="942" font-size="16" fill="#17243b" font-weight="500" text-anchor="middle">18</text><rect x="892.695" y="779.6" width="31.86" height="134.4" rx="3" fill="url(#h6)" stroke="none"/><text x="908.625" y="770.6" font-size="16" fill="#17243b" font-weight="500" text-anchor="middle">64</text><text x="908.625" y="942" font-size="16" fill="#17243b" font-weight="500" text-anchor="middle">19</text><rect x="936.945" y="722.9" width="31.86" height="191.1" rx="3" fill="url(#h7)" stroke="none"/><text x="952.875" y="713.9" font-size="16" fill="#17243b" font-weight="500" text-anchor="middle">91</text><text x="952.875" y="942" font-size="16" fill="#17243b" font-weight="500" text-anchor="middle">20</text><rect x="981.195" y="817.4" width="31.86" height="96.6" rx="3" fill="url(#h8)" stroke="none"/><text x="997.125" y="808.4" font-size="16" fill="#17243b" font-weight="500" text-anchor="middle">46</text><text x="997.125" y="942" font-size="16" fill="#17243b" font-weight="500" text-anchor="middle">21</text><rect x="1025.445" y="748.1" width="31.86" height="165.9" rx="3" fill="url(#h9)" stroke="none"/><text x="1041.375" y="739.1" font-size="16" fill="#17243b" font-weight="500" text-anchor="middle">79</text><text x="1041.375" y="942" font-size="16" fill="#17243b" font-weight="500" text-anchor="middle">22</text><rect x="1069.695" y="792.2" width="31.86" height="121.8" rx="3" fill="url(#h10)" stroke="none"/><text x="1085.625" y="783.2" font-size="16" fill="#17243b" font-weight="500" text-anchor="middle">58</text><text x="1085.625" y="942" font-size="16" fill="#17243b" font-weight="500" text-anchor="middle">23</text><rect x="1113.945" y="771.2" width="31.86" height="142.8" rx="3" fill="url(#h11)" stroke="none"/><text x="1129.875" y="762.2" font-size="16" fill="#17243b" font-weight="500" text-anchor="middle">68</text><text x="1129.875" y="942" font-size="16" fill="#17243b" font-weight="500" text-anchor="middle">24</text><text x="48" y="987" font-size="18" fill="#526178" font-weight="400" text-anchor="start">Stable category assignments drive reuse. Filtering does not restart the palette or remove a pattern.</text></g></svg>