<svg xmlns="http://www.w3.org/2000/svg" width="1600" height="900" viewBox="0 0 1600 900" role="img" aria-labelledby="title desc"><title id="title">Just a few colours</title><desc id="desc">A row of twelve vivid colours above a line chart, with a solid blue swatch beside the same blue with diagonal hatching.</desc><defs><pattern id="hatch" width="28" height="28" patternUnits="userSpaceOnUse" patternTransform="rotate(45)"><rect width="28" height="28" fill="#335cff"/><path d="M0 0V28" stroke="#fff" stroke-width="5"/></pattern></defs><rect width="1600" height="900" fill="#101c31"/><g stroke="#1b2a43" stroke-width="1"><path d="M80 0V900"/><path d="M160 0V900"/><path d="M240 0V900"/><path d="M320 0V900"/><path d="M400 0V900"/><path d="M480 0V900"/><path d="M560 0V900"/><path d="M640 0V900"/><path d="M720 0V900"/><path d="M800 0V900"/><path d="M880 0V900"/><path d="M960 0V900"/><path d="M1040 0V900"/><path d="M1120 0V900"/><path d="M1200 0V900"/><path d="M1280 0V900"/><path d="M1360 0V900"/><path d="M1440 0V900"/><path d="M1520 0V900"/><path d="M0 60H1600"/><path d="M0 120H1600"/><path d="M0 180H1600"/><path d="M0 240H1600"/><path d="M0 300H1600"/><path d="M0 360H1600"/><path d="M0 420H1600"/><path d="M0 480H1600"/><path d="M0 540H1600"/><path d="M0 600H1600"/><path d="M0 660H1600"/><path d="M0 720H1600"/><path d="M0 780H1600"/><path d="M0 840H1600"/></g><rect x="82" y="92" width="96" height="90" rx="18" fill="#6e8fff"/><rect x="204" y="92" width="96" height="90" rx="18" fill="#ff9a3d"/><rect x="326" y="92" width="96" height="90" rx="18" fill="#36d678"/><rect x="448" y="92" width="96" height="90" rx="18" fill="#ff7085"/><rect x="570" y="92" width="96" height="90" rx="18" fill="#16c6c0"/><rect x="692" y="92" width="96" height="90" rx="18" fill="#f16acb"/><rect x="814" y="92" width="96" height="90" rx="18" fill="#2db8f5"/><rect x="936" y="92" width="96" height="90" rx="18" fill="#b17aff"/><rect x="1058" y="92" width="96" height="90" rx="18" fill="#a1ce00"/><rect x="1180" y="92" width="96" height="90" rx="18" fill="#ef59ff"/><rect x="1302" y="92" width="96" height="90" rx="18" fill="#8c96ff"/><rect x="1424" y="92" width="96" height="90" rx="18" fill="#ff4e91"/><g font-family="Arial,Helvetica,sans-serif"><text x="82" y="268" font-size="19" font-weight="700" letter-spacing="2" fill="#9fb1ca">DESIGN SYSTEM FIELD NOTES</text><text x="76" y="382" font-size="82" font-weight="700" fill="#f7f9fc">JUST A FEW</text><text x="76" y="477" font-size="82" font-weight="700" fill="#f7f9fc">COLOURS</text><rect x="830" y="285" width="688" height="463" rx="24" fill="#14243d" stroke="#29405e" stroke-width="2"/><g stroke="#263b58" stroke-width="2"><path d="M880 345H1468"/><path d="M880 427H1468"/><path d="M880 509H1468"/><path d="M880 591H1468"/><path d="M880 673H1468"/></g><polyline points="892,650 990,545 1085,590 1190,420 1290,475 1390,350 1460,390" fill="none" stroke="#6e8fff" stroke-width="10" stroke-linejoin="round" stroke-linecap="round"/><circle cx="892" cy="650" r="14" fill="#6e8fff" stroke="#f7f9fc" stroke-width="3"/><circle cx="990" cy="545" r="14" fill="#36d678" stroke="#f7f9fc" stroke-width="3"/><circle cx="1085" cy="590" r="14" fill="#16c6c0" stroke="#f7f9fc" stroke-width="3"/><circle cx="1190" cy="420" r="14" fill="#2db8f5" stroke="#f7f9fc" stroke-width="3"/><circle cx="1290" cy="475" r="14" fill="#a1ce00" stroke="#f7f9fc" stroke-width="3"/><circle cx="1390" cy="350" r="14" fill="#8c96ff" stroke="#f7f9fc" stroke-width="3"/><circle cx="1460" cy="390" r="14" fill="#6e8fff" stroke="#f7f9fc" stroke-width="3"/><rect x="82" y="622" width="248" height="138" rx="18" fill="#335cff"/><rect x="356" y="622" width="248" height="138" rx="18" fill="url(#hatch)"/><g font-family="monospace" font-size="23" fill="#c8d3e2"><text x="82" y="812">01  SOLID</text><text x="356" y="812">13  REUSED</text></g></g></svg>